<?xml version="1.0" encoding="utf-8"?>
<!-- Generator: Adobe Illustrator 27.4.1, SVG Export Plug-In . SVG Version: 6.00 Build 0)  -->
<svg version="1.1" id="icon-0" xmlns="http://www.w3.org/2000/svg" xmlns:xlink="http://www.w3.org/1999/xlink" x="0px" y="0px"
	 viewBox="0 0 154 178" style="enable-background:new 0 0 154 178;" xml:space="preserve">
<style type="text/css">
	.st0{fill:#070707;}
</style>
<g>
	<path class="st0" d="M134.4,89.2c-2.2-0.4-4.7-0.9-7.2-1.3c2.4,6.1,3.8,12.8,3.8,19.8c0,29.8-24.2,54.1-54.1,54.1
		s-54.1-24.2-54.1-54.1c0-7,1.3-13.7,3.8-19.8c-2.6,0.3-5,0.8-7.2,1.3c-1,0.2-1.9,0.4-2.8,0.7c-1.7,5.7-2.6,11.7-2.6,17.8
		c0,34.8,28.1,63,63,63s63-28.1,63-63c0-6.2-0.9-12.1-2.6-17.8C136.4,89.6,135.4,89.4,134.4,89.2L134.4,89.2z"/>
	<path class="st0" d="M145,79.3c0,0-7.4-4.7-12.2-27.8c-3.6-16.6-14.8-25.8-23.9-30.4v15.2c0,1.2-1,2.2-2.2,2.2s-2.2-1-2.2-2.2V19.2
		c-1.8-0.7-3.4-1.1-4.8-1.4c-1.6-0.3-2.8-0.7-3.8-0.9v21.2l16.6,10.2c1.2,0.8,1.6,2.3,0.9,3.6c-0.4,0.8-1.3,1.2-2.2,1.2
		c-0.4,0-0.9-0.1-1.3-0.3l-17.8-11c-0.8-0.4-1.2-1.3-1.2-2.2V18.4l0,0v-11H63.2v11l0,0v21.1c0,0.9-0.4,1.7-1.2,2.2l-17.8,11
		c-0.4,0.2-0.9,0.3-1.3,0.3c-0.9,0-1.7-0.4-2.2-1.2c-0.8-1.2-0.3-2.8,0.9-3.6l16.6-10.2V16.9c-1,0.2-2.2,0.4-3.8,0.9
		c-1.3,0.3-3.1,0.8-4.9,1.4v17.1c0,1.2-1,2.2-2.2,2.2s-2.2-1-2.2-2.2V21.2c-9.2,4.6-20.4,13.7-23.8,30.3C16.3,74.6,9,79.3,9,79.3
		c-2,0.7-2.9,1-2.9,1l1.7,7.8c2.8-1.3,6.4-2.3,10.6-3.2h0.2c3.2-0.7,6.8-1.3,10.3-1.8c19-2.6,42-2.8,47.1-2.8h2c5,0,28,0.1,47.2,2.8
		c3.7,0.4,7.1,1.1,10.4,1.8h0.2c4.1,0.9,7.8,2,10.6,3.2l1.7-7.8C147.9,80.4,147,79.9,145,79.3L145,79.3z"/>
</g>
</svg>
