<?xml version="1.0" encoding="UTF-8"?>
<svg id="icon-0" xmlns="http://www.w3.org/2000/svg" viewBox="0 0 698.32 436.45">
  <g id="tight-bounds">
    <g>
      <g>
        <path id="yj-0" d="m225.78,136.22h0c1.25,0,2.26,2.5,2.26,5.59v152.84c0,3.09-1.01,5.59-2.26,5.59h0c-1.25,0-2.26-2.5-2.26-5.59v-152.84c0-3.09,1.01-5.59,2.26-5.59Z"/>
        <g id="text-0">
          <path d="m299.14,188.07h-15.43v-17.48c0-2.16.08-4.38.25-6.67.16-2.27.33-4.19.52-5.74s.31-2.54.35-2.96h-.28l-8.95,32.84h-12.19l-9.02-32.77h-.28c.05.42.18,1.4.39,2.92.21,1.53.4,3.43.59,5.71.19,2.28.28,4.51.28,6.67h0v17.48h-14.3v-48.48h21.98l7.33,27.97h.28l7.26-27.97h21.21v48.48Zm33.54-49.33c8.36,0,14.82,2.14,19.38,6.41s6.84,10.5,6.84,18.67h0c0,8.17-2.28,14.4-6.84,18.67s-11.02,6.41-19.38,6.41h0c-8.36,0-14.81-2.13-19.34-6.38-4.54-4.25-6.81-10.48-6.81-18.7h0c0-8.22,2.27-14.46,6.81-18.72,4.53-4.25,10.97-6.37,19.34-6.37Zm0,11.63c-3.34,0-5.87,1.01-7.61,3.03s-2.61,4.75-2.61,8.17h0v4.51c0,3.43.87,6.15,2.61,8.17,1.74,2.02,4.27,3.03,7.61,3.03h0c3.34,0,5.89-1.01,7.65-3.03,1.76-2.02,2.64-4.75,2.64-8.17h0v-4.51c0-3.43-.88-6.15-2.64-8.17-1.77-2.02-4.32-3.03-7.65-3.03Zm80.61,4.09c0,2.96-.8,5.64-2.4,8.03-1.6,2.4-3.92,4.16-6.98,5.28h0l10.78,20.29h-17.48l-8.6-17.69h-5.78v17.69h-15.57v-48.48h29.67c3.48,0,6.45.67,8.92,2,2.46,1.34,4.32,3.15,5.57,5.43,1.24,2.28,1.86,4.76,1.86,7.44h0Zm-15.85.63c0-1.27-.42-2.33-1.27-3.17s-1.88-1.27-3.1-1.27h-10.22v8.95h10.22c1.22,0,2.25-.44,3.1-1.31.85-.86,1.27-1.93,1.27-3.2Zm47.77-16.35c4.65,0,8.83.7,12.54,2.11s6.66,3.49,8.85,6.23c2.18,2.75,3.27,6.1,3.27,10.05h-14.87c0-2.02-.89-3.65-2.68-4.9-1.79-1.24-3.95-1.86-6.48-1.86h0c-3.66,0-6.44.97-8.31,2.92-1.88,1.95-2.82,4.72-2.82,8.29h0v4.51c0,3.57.94,6.33,2.82,8.27,1.88,1.95,4.65,2.93,8.31,2.93h0c2.54,0,4.7-.6,6.48-1.8,1.79-1.19,2.68-2.73,2.68-4.61h-10.99v-9.87h25.86v27.06h-8.03l-1.55-4.79c-4.42,3.76-10.19,5.64-17.33,5.64h0c-8.03,0-14.07-2.1-18.11-6.31-4.04-4.2-6.06-10.46-6.06-18.77h0c0-8.22,2.29-14.46,6.88-18.72,4.58-4.25,11.09-6.37,19.55-6.37h0Zm83.29,49.33h-16.49l-2.04-6.84h-16.98l-2.04,6.84h-15.92l17.69-48.48h18.11l17.69,48.48Zm-27.13-34.95l-5.14,17.26h10.5l-5.07-17.26h-.28Zm81.25,34.95h-13.6l-20.36-23.54v23.54h-14.3v-48.48h13.6l20.36,23.89v-23.89h14.3v48.48Z"/>
          <path d="m262.43,193.14c6.2,0,11.3,1.25,15.29,3.76,3.99,2.52,6.04,6.24,6.13,11.18h0v.85h-14.59v-.28c0-1.41-.52-2.58-1.55-3.52s-2.61-1.41-4.72-1.41h0c-2.07,0-3.65.31-4.75.92-1.11.61-1.66,1.36-1.66,2.25h0c0,1.27.75,2.21,2.25,2.82s3.92,1.24,7.26,1.9h0c3.9.8,7.11,1.63,9.63,2.49,2.51.87,4.7,2.3,6.58,4.27,1.88,1.97,2.84,4.65,2.89,8.03h0c0,5.73-1.93,9.98-5.81,12.75-3.88,2.77-9.06,4.16-15.54,4.16h0c-7.56,0-13.44-1.27-17.64-3.81-4.21-2.54-6.31-7.02-6.31-13.46h14.73c0,2.44.63,4.07,1.9,4.89,1.27.83,3.24,1.24,5.92,1.24h0c1.97,0,3.61-.21,4.9-.63,1.29-.42,1.93-1.29,1.93-2.61h0c0-1.17-.71-2.06-2.14-2.65-1.44-.58-3.78-1.2-7.02-1.86h0c-3.95-.85-7.21-1.73-9.79-2.65-2.58-.91-4.84-2.42-6.76-4.54s-2.89-4.98-2.89-8.6h0c0-5.31,2.06-9.22,6.17-11.74,4.11-2.51,9.31-3.76,15.6-3.76Zm79.48,49.33h-16.49l-2.04-6.84h-16.98l-2.04,6.84h-15.92l17.69-48.48h18.11l17.69,48.48Zm-27.13-34.95l-5.14,17.26h10.5l-5.07-17.26h-.28Zm32.98,34.95v-48.48h39.18v11.63h-23.61v8.31h20.29v11.13h-20.29v17.4h-15.57Zm47,0v-48.48h41.93v11.63h-26.35v6.69h22.55v11.13h-22.55v7.4h26.85v11.63h-42.42Zm94.63-36.08h-15.85v36.08h-15.57v-36.08h-15.92v-12.4h47.35v12.4Zm37.21,17.26v18.81h-15.57v-18.81l-19.24-29.67h17.9l9.3,16.14h.28l9.3-16.14h16.98l-18.95,29.67Z"/>
          <path d="m262.43,247.54c6.2,0,11.3,1.25,15.29,3.76,3.99,2.52,6.04,6.24,6.13,11.18h0v.85h-14.59v-.28c0-1.41-.52-2.58-1.55-3.52s-2.61-1.41-4.72-1.41h0c-2.07,0-3.65.31-4.75.92-1.11.61-1.66,1.36-1.66,2.25h0c0,1.27.75,2.21,2.25,2.82s3.92,1.24,7.26,1.9h0c3.9.8,7.11,1.63,9.63,2.49,2.51.87,4.7,2.3,6.58,4.27,1.88,1.97,2.84,4.65,2.89,8.03h0c0,5.73-1.93,9.98-5.81,12.75-3.88,2.77-9.06,4.16-15.54,4.16h0c-7.56,0-13.44-1.27-17.64-3.81-4.21-2.54-6.31-7.02-6.31-13.46h14.73c0,2.44.63,4.07,1.9,4.89,1.27.83,3.24,1.24,5.92,1.24h0c1.97,0,3.61-.21,4.9-.63,1.29-.42,1.93-1.29,1.93-2.61h0c0-1.17-.71-2.06-2.14-2.65-1.44-.58-3.78-1.2-7.02-1.86h0c-3.95-.85-7.21-1.73-9.79-2.65-2.58-.91-4.84-2.42-6.76-4.54s-2.89-4.98-2.89-8.6h0c0-5.31,2.06-9.22,6.17-11.74,4.11-2.51,9.31-3.76,15.6-3.76Zm30.51,49.33v-48.48h41.93v11.63h-26.35v6.69h22.55v11.13h-22.55v7.4h26.85v11.63h-42.42Zm96.89-33.61c0,2.96-.8,5.64-2.4,8.03-1.6,2.4-3.92,4.16-6.98,5.28h0l10.78,20.29h-17.48l-8.6-17.69h-5.78v17.69h-15.57v-48.48h29.67c3.48,0,6.45.67,8.92,2,2.46,1.34,4.31,3.15,5.55,5.43,1.25,2.28,1.87,4.76,1.87,7.44h0Zm-15.85.63c0-1.27-.42-2.33-1.27-3.17s-1.88-1.27-3.1-1.27h-10.22v8.95h10.22c1.22,0,2.25-.44,3.1-1.31.85-.86,1.27-1.93,1.27-3.2Zm54.68,32.98h-18.04l-17.19-48.48h16.63l9.72,32.41h.28l9.79-32.41h15.92l-17.12,48.48Zm39.88,0h-15.57v-48.48h15.57v48.48Zm34.25-49.33c7.19,0,12.87,1.79,17.05,5.38,4.18,3.6,6.27,8.73,6.27,15.4h-14.87c0-2.82-.74-5.05-2.21-6.69-1.48-1.64-3.59-2.47-6.31-2.47h0c-3.15,0-5.46.99-6.93,2.96-1.48,1.97-2.23,4.72-2.23,8.24h0v4.51c0,3.48.74,6.21,2.23,8.2,1.48,2,3.74,3,6.79,3h0c3.01,0,5.28-.78,6.84-2.33,1.55-1.55,2.33-3.73,2.33-6.55h14.37c0,6.62-2.03,11.7-6.09,15.22-4.07,3.52-9.81,5.28-17.24,5.28h0c-8.27,0-14.53-2.11-18.77-6.34-4.26-4.23-6.38-10.48-6.38-18.74h0c0-8.27,2.13-14.52,6.38-18.74,4.25-4.23,10.5-6.34,18.77-6.34h0Zm31.71,49.33v-48.48h41.93v11.63h-26.35v6.69h22.55v11.13h-22.55v7.4h26.85v11.63h-42.42Zm71.24-49.33c6.2,0,11.3,1.25,15.29,3.76,3.99,2.52,6.04,6.24,6.13,11.18h0v.85h-14.59v-.28c0-1.41-.52-2.58-1.55-3.52s-2.61-1.41-4.72-1.41h0c-2.07,0-3.65.31-4.75.92-1.11.61-1.66,1.36-1.66,2.25h0c0,1.27.75,2.21,2.25,2.82,1.5.61,3.92,1.24,7.26,1.9h0c3.9.8,7.11,1.63,9.63,2.49,2.51.87,4.7,2.3,6.58,4.27,1.88,1.97,2.84,4.65,2.89,8.03h0c0,5.73-1.93,9.98-5.81,12.75-3.88,2.77-9.06,4.16-15.54,4.16h0c-7.56,0-13.44-1.27-17.64-3.81-4.21-2.54-6.31-7.02-6.31-13.46h14.73c0,2.44.63,4.07,1.9,4.89,1.27.83,3.24,1.24,5.92,1.24h0c1.97,0,3.61-.21,4.9-.63,1.29-.42,1.93-1.29,1.93-2.61h0c0-1.17-.71-2.06-2.14-2.65-1.44-.58-3.78-1.2-7.02-1.86h0c-3.95-.85-7.21-1.73-9.79-2.65-2.58-.91-4.84-2.42-6.76-4.54s-2.89-4.98-2.89-8.6h0c0-5.31,2.06-9.22,6.17-11.74,4.11-2.51,9.31-3.76,15.6-3.76h0Z"/>
        </g>
        <g>
          <path d="m198.21,218.39c-2.22-.44-4.67-.89-7.23-1.33,2.45,6.12,3.78,12.79,3.78,19.8,0,29.81-24.25,54.06-54.06,54.06s-54.06-24.25-54.06-54.06c0-7.01,1.33-13.68,3.78-19.8-2.56.33-5.01.78-7.23,1.33-1,.22-1.89.44-2.78.67-1.67,5.67-2.56,11.68-2.56,17.8,0,34.82,28.14,62.96,62.96,62.96s62.96-28.14,62.96-62.96c0-6.23-.89-12.13-2.56-17.8-1-.22-2-.44-3-.67Z"/>
          <path d="m208.78,208.49s-7.45-4.67-12.24-27.81c-3.56-16.58-14.8-25.81-23.92-30.37v15.24c0,1.22-1,2.22-2.22,2.22s-2.22-1-2.22-2.22v-17.13c-1.78-.67-3.45-1.11-4.78-1.45-1.56-.33-2.78-.67-3.78-.89v21.25l16.58,10.23c1.22.78,1.56,2.34.89,3.56-.44.78-1.33,1.22-2.22,1.22-.44,0-.89-.11-1.33-.33l-17.8-11.01c-.78-.44-1.22-1.33-1.22-2.22v-21.14h0v-11.01h-27.48v11.01h0v21.14c0,.89-.44,1.67-1.22,2.22l-17.8,11.01c-.44.22-.89.33-1.33.33-.89,0-1.67-.44-2.22-1.22-.78-1.22-.33-2.78.89-3.56l16.58-10.23v-21.25c-1,.22-2.22.44-3.78.89-1.33.33-3.11.78-4.89,1.45v17.13c0,1.22-1,2.22-2.22,2.22s-2.22-1-2.22-2.22v-15.13c-9.23,4.56-20.36,13.68-23.81,30.26-4.89,23.14-12.24,27.81-12.24,27.81-2,.67-2.89,1-2.89,1l1.67,7.79c2.78-1.33,6.45-2.34,10.57-3.23h.22c3.23-.67,6.79-1.33,10.35-1.78,19.02-2.56,42.05-2.78,47.06-2.78h2c5.01,0,28.03.11,47.17,2.78,3.67.44,7.12,1.11,10.35,1.78h.22c4.12.89,7.79,2,10.57,3.23l1.67-7.79c0,.11-.89-.33-2.89-1Z"/>
        </g>
      </g>
      <path d="m0,436.45V0h698.32v436.45H0Zm693.8-4.53V4.53H4.53v427.4h689.27Z"/>
    </g>
  </g>
</svg>